<?xml version="1.0" standalone="no"?>
<!DOCTYPE svg PUBLIC "-//W3C//DTD SVG 20010904//EN"
 "http://www.w3.org/TR/2001/REC-SVG-20010904/DTD/svg10.dtd">
<svg version="1.0" xmlns="http://www.w3.org/2000/svg"
 width="2400.000000pt" height="283.000000pt" viewBox="0 0 2400.000000 283.000000"
 preserveAspectRatio="xMidYMid meet">

<g transform="translate(0.000000,283.000000) scale(0.100000,-0.100000)"
fill="#000000" stroke="none">
<path d="M7706 2814 c-249 -38 -439 -125 -573 -260 -153 -155 -227 -400 -194
-648 23 -168 77 -286 181 -392 107 -110 239 -181 510 -277 303 -107 370 -139
446 -209 58 -53 86 -123 86 -214 0 -380 -566 -483 -1126 -203 -54 27 -100 49
-102 49 -2 0 -3 -107 -2 -237 l3 -238 50 -27 c72 -39 204 -86 325 -115 87 -21
138 -26 300 -30 179 -4 205 -3 315 20 135 28 249 69 345 124 88 52 228 191
274 274 101 183 129 400 81 622 -45 211 -207 386 -459 495 -45 19 -150 59
-234 89 -283 98 -368 139 -435 208 -59 61 -72 98 -72 205 0 107 17 152 80 213
174 169 595 166 945 -6 58 -28 108 -53 113 -55 4 -2 7 103 7 233 l0 236 -83
39 c-219 103 -526 144 -781 104z"/>
<path d="M15757 2814 c-309 -48 -561 -203 -670 -412 -74 -141 -106 -315 -87
-477 21 -189 66 -299 167 -406 120 -126 244 -193 578 -309 303 -105 402 -166
456 -279 53 -111 17 -277 -80 -363 -97 -86 -218 -122 -411 -122 -211 1 -398
48 -614 155 -54 27 -101 49 -102 49 -2 0 -4 -106 -4 -235 l0 -234 44 -26 c68
-40 241 -101 351 -125 139 -30 423 -39 551 -16 336 58 574 217 690 461 55 115
75 211 76 360 1 154 -15 233 -72 350 -96 199 -252 304 -665 450 -216 77 -343
138 -399 192 -112 108 -119 299 -15 417 160 181 620 181 981 0 48 -24 90 -44
93 -44 3 0 5 106 5 236 l0 235 -93 44 c-207 98 -526 139 -780 99z"/>
<path d="M22 1413 l3 -1368 233 -3 232 -2 0 509 0 508 258 6 c141 4 268 8 280
9 22 3 35 -27 226 -512 l202 -515 247 -3 c160 -1 247 1 247 8 0 17 -453 1115
-475 1150 -3 5 24 29 60 55 120 85 222 236 259 381 25 96 38 259 31 364 -26
375 -189 606 -500 709 -194 64 -191 64 -773 68 l-532 4 2 -1368z m1023 908
c202 -53 293 -165 303 -372 12 -265 -116 -409 -401 -448 -43 -6 -166 -11 -273
-11 l-194 0 0 431 0 432 243 -6 c201 -4 255 -9 322 -26z"/>
<path d="M2390 1930 l0 -850 230 0 230 0 0 850 0 850 -230 0 -230 0 0 -850z"/>
<path d="M3700 1817 c0 -1046 1 -1016 -56 -1128 -54 -108 -164 -183 -315 -215
-56 -12 -108 -15 -219 -11 -209 8 -355 45 -581 147 -63 28 -120 54 -126 57
-10 4 -13 -47 -13 -234 l0 -239 75 -38 c334 -164 802 -203 1133 -94 311 103
506 353 552 709 5 43 10 483 10 1042 l0 967 -230 0 -230 0 0 -963z"/>
<path d="M4790 1415 l0 -1365 230 0 230 0 2 606 3 607 455 -606 455 -607 293
0 c292 0 293 0 282 21 -6 11 -111 149 -234 307 -446 577 -827 1073 -832 1085
-2 7 95 136 217 287 536 664 819 1017 819 1023 0 4 -132 7 -292 6 l-293 0
-113 -147 c-62 -81 -258 -332 -435 -558 l-322 -412 -3 559 -2 559 -230 0 -230
0 0 -1365z"/>
<path d="M9780 1415 l0 -1365 230 0 230 0 0 888 c0 796 -6 1046 -26 1162 -9
48 7 29 36 -45 43 -110 120 -257 323 -618 l202 -357 184 2 183 3 42 75 c24 41
124 219 223 395 100 176 201 365 225 420 70 158 69 157 62 110 -4 -22 -8 -489
-11 -1038 l-4 -997 231 0 230 0 0 1365 0 1365 -267 -2 -268 -3 -242 -435
c-133 -239 -279 -506 -324 -593 l-81 -158 -58 118 c-31 65 -97 188 -145 273
-48 85 -168 300 -267 478 l-180 322 -264 0 -264 0 0 -1365z"/>
<path d="M12630 2068 c0 -392 -3 -789 -6 -883 -22 -595 109 -917 441 -1083
141 -70 310 -102 545 -102 307 0 503 54 678 185 111 83 202 217 251 365 56
172 54 134 58 1223 l4 1007 -230 0 -230 0 -3 -962 c-3 -881 -5 -968 -21 -1023
-53 -181 -138 -272 -302 -321 -85 -26 -306 -26 -390 0 -162 49 -235 119 -299
286 -21 55 -21 63 -24 1038 l-3 982 -234 0 -235 0 0 -712z"/>
<path d="M17150 1415 l0 -1365 800 0 800 0 0 220 0 220 -565 0 -565 0 0 380 0
380 545 0 545 0 0 220 0 220 -545 0 -545 0 0 330 0 330 565 0 565 0 0 215 0
215 -800 0 -800 0 0 -1365z"/>
<path d="M19160 1823 c0 -793 3 -975 15 -1056 17 -112 46 -215 85 -303 143
-320 473 -480 949 -461 516 21 787 224 898 673 15 62 17 172 20 1087 l4 1017
-230 0 -230 0 -3 -972 c-3 -912 -4 -976 -22 -1028 -77 -233 -214 -321 -501
-321 -288 -1 -432 95 -502 336 -16 55 -18 143 -21 1023 l-3 962 -229 0 -230 0
0 -957z"/>
<path d="M21620 1415 l0 -1365 235 0 235 0 0 863 c0 760 -7 1064 -25 1187 -4
27 0 22 18 -25 49 -121 106 -235 222 -440 64 -115 162 -290 217 -388 l100
-177 181 2 181 3 183 325 c200 355 288 522 340 645 31 73 33 76 28 35 -4 -25
-9 -492 -11 -1037 l-5 -993 231 0 230 0 0 1365 0 1365 -264 0 -264 0 -223
-402 c-123 -222 -268 -491 -324 -599 l-100 -196 -60 121 c-33 67 -179 336
-324 599 l-265 477 -268 0 -268 0 0 -1365z"/>
</g>
</svg>
